PathFileType	4	(X/Y/Z)	Patient4_TMGait_0pt4_02_right_12.trc.trc
DataRate	CameraRate	NumFrames	NumMarkers	Units	OrigDataRate	OrigDataStartFrame	OrigNumFrames
75.268817204301	75.268817204301	5	33	mm	75.268817204301	106	       141
Frame#	Time	Sacral			L.Shoulder			Chest			R.Shoulder			Neck			R.ASIS			L.ASIS			R.Thigh.Superior			R.Thigh.Lateral			R.Thigh.Inferior			R.Patella			L.Thigh.Superior			L.Thigh.Lateral			L.Thigh.Inferior			L.Patella			L.Shank.Superior			L.Shank.Lateral			L.Shank.Inferior			R.Shank.Superior			R.Shank.Lateral			R.Shank.Inferior			R.Heel			R.Midfoot.Superior			R.Midfoot.Lateral			R.Toe			L.Heel			L.Midfoot.Lateral			L.Midfoot.Superior			L.Toe			L.Elbow			L.Wrist			R.Elbow			R.Wrist			
		X1	Y1	Z1	X2	Y2	Z2	X3	Y3	Z3	X4	Y4	Z4	X5	Y5	Z5	X6	Y6	Z6	X7	Y7	Z7	X8	Y8	Z8	X9	Y9	Z9	X10	Y10	Z10	X11	Y11	Z11	X12	Y12	Z12	X13	Y13	Z13	X14	Y14	Z14	X15	Y15	Z15	X16	Y16	Z16	X17	Y17	Z17	X18	Y18	Z18	X19	Y19	Z19	X20	Y20	Z20	X21	Y21	Z21	X22	Y22	Z22	X23	Y23	Z23	X24	Y24	Z24	X25	Y25	Z25	X26	Y26	Z26	X27	Y27	Z27	X28	Y28	Z28	X29	Y29	Z29	X30	Y30	Z30	X31	Y31	Z31	X32	Y32	Z32	X33	Y33	Z33	

106	16.765000000000	844.553881300506	1014.754566977124	407.714192821705	1055.322599451044	1429.633839496125	206.185043520475	1145.015538503032	1367.456776271898	376.642469144376	1053.687089529846	1454.456399780290	540.683991588470	1040.022121630125	1499.635351482231	357.439855145646	1071.158133890815	957.478094122387	531.040622483654	1062.172249722713	962.573769303661	257.447485741587	1154.384086125280	789.008621107222	507.148839600482	1120.250245412857	668.897881164765	588.858433560202	1208.484860302349	628.863131896753	510.197720203534	1235.552169403569	527.337141013732	537.700111985412	1098.686377345746	749.766242115783	284.236304052655	1001.043981140105	637.650901486366	229.393083475342	1085.753869151874	557.015668711422	287.103245409909	1082.718860012391	488.348472517074	297.170107443422	1054.055550541230	417.631860417984	292.934290962307	957.261332904389	304.731443559250	250.135514813418	1011.614141878866	193.681684314678	320.986879468667	1181.951256880868	441.699827884806	549.585976595592	1081.006487600582	369.470280971492	615.832141310643	1101.188207422217	258.927256820518	570.760030756622	931.296285010664	137.694007994744	551.188684858653	1109.616304644693	130.022377784161	585.297286767367	1007.057045601200	98.011737423058	623.333690563892	1206.145308793431	43.466736336067	611.676467289583	884.365540781183	39.431211346348	375.791762625948	954.176960688801	35.115843077692	291.287603484690	1039.149542990267	96.214207037565	313.402644004160	1166.347675161811	42.252556815119	279.682091631682	1046.472037840820	1086.753349164254	67.004731801600	1203.994270555225	875.694787962235	56.420322667177	949.916704905539	1133.649101748755	683.878466430893	986.159765734559	876.162698280663	713.395901662275	
107	16.778285714286	843.778138427117	1014.848287016816	407.373851436796	1056.507243201927	1428.852796682318	205.747447800909	1144.796621123848	1367.198547117279	377.090675328084	1052.291357567067	1454.864191547413	540.082426571496	1040.013007763050	1499.352369023156	356.668217240661	1069.876350915274	957.461494183087	531.939893929783	1061.975074820348	962.428432606142	258.211109980934	1152.581313492328	788.966649566004	508.067372947170	1118.997382969912	669.150785127226	590.149357550078	1206.446355320185	628.750711931439	510.885583214012	1234.812076682455	529.521157409252	538.335128890235	1096.914843326429	749.213294273942	285.176450296010	998.522136775203	637.647408535084	229.599982702155	1082.482170723894	556.471314505589	287.465269151352	1078.865577095581	487.871592790489	297.486933610609	1050.023964840751	417.282922050806	293.162589864447	952.804928671127	304.766290766663	250.331390929598	1006.782219412299	193.503622893461	321.116601816264	1185.696610212807	442.981789941047	550.981146975199	1090.057108266687	365.284854203728	618.402861363677	1116.420236263498	256.014582292033	573.285539645107	954.160655752729	125.785792976095	554.874788669974	1132.736552337198	126.811551686886	588.178184595333	1032.131303802531	89.958286519078	626.713167691676	1233.494295785021	45.003550937632	614.139465752864	879.053729011554	39.409974430811	375.793406545044	948.846026579805	35.110967490385	291.298537999337	1033.844804957139	96.199481484363	313.426815864985	1161.023505576344	42.198580367895	279.672975322995	1051.785956234261	1086.185878095395	66.250801499238	1210.604804777097	876.027853656300	56.988906123340	941.761366080390	1137.002979341592	683.642801301167	972.890216540028	879.158601367388	715.475619917138	
108	16.791571428571	843.088776104896	1014.880335186082	407.227090749113	1057.595387852164	1427.986319779504	205.521838680934	1144.620322277901	1366.845731789492	377.670078331157	1051.072620645499	1455.168627363652	539.671546477269	1040.029568416414	1498.991654243938	356.114232575619	1068.675641183752	957.232017663620	532.942028761803	1061.816944672133	962.277211798501	259.054762131209	1150.404746609082	788.255104608326	509.181022146607	1116.870277273853	668.899080836224	591.657824286668	1203.528674056003	627.884735825942	511.866518072332	1232.980663893581	531.136535498686	539.068389360226	1095.193754036725	748.614086997741	286.111582612623	996.017492424062	637.612809178120	229.891876014009	1079.174863504768	555.895779159728	287.941995366434	1074.964610272769	487.391872245199	297.953521449401	1045.971975058262	416.919764755617	293.500270510198	948.384808520394	304.772866881321	250.558669912479	1001.957911178221	193.311271153982	321.315622335233	1188.600277178377	444.060715253935	552.463133684289	1098.878956891284	361.029035803686	621.162551767014	1131.494894413729	253.503792517332	575.832939338523	977.721077000780	114.442785098109	558.618027713960	1156.096327143916	124.486453080361	591.073458299074	1057.783459940428	82.716277222493	630.086458227057	1260.921385796578	47.723266445275	616.443380094463	873.745622347828	39.374336286929	375.792439263758	943.508455563949	35.098228858738	291.312683846274	1028.531359013321	96.189539937674	313.461110363641	1155.691450101391	42.154640473799	279.667886959043	1056.878017188157	1085.503857402535	65.906126350773	1216.942148960812	876.233942122181	57.831219684322	934.190226690000	1140.147635138536	683.330087939067	960.514654371069	882.046670684511	717.282662340348	
109	16.804857142857	842.502162648135	1014.858299528293	407.262430151240	1058.573332609978	1427.072933971032	205.521412053667	1144.486467280770	1366.423505336866	378.385917613926	1050.046134417471	1455.384449038282	539.481848148109	1040.065452965375	1498.578193158763	355.801798765528	1067.579257612144	956.818304250654	534.034487765490	1061.733659524197	962.144746129911	259.965479489149	1147.912347370399	786.918347868197	510.480150301371	1113.919975967631	668.180596776089	593.375195134320	1199.828392835096	626.339261110088	513.144236359366	1230.151276981299	532.203520835574	539.896346528969	1093.515812030114	747.962773419894	287.067137456941	993.528899137781	637.559993963675	230.274058905530	1075.794730492599	555.287531332782	288.564084543659	1070.970325458206	486.918128715771	298.595074179466	1041.861248755652	416.557344347604	293.963039723322	943.980423531692	304.756122549724	250.817017030249	997.123456336824	193.113567540265	321.588719295256	1190.667898296847	444.974308360148	554.004698274086	1107.355030432184	356.848554049538	624.031054801348	1146.174184575583	251.520148190739	578.310739267230	1001.601450436024	103.925195831336	562.284883986639	1179.304802478201	123.224093645184	593.864815792781	1083.606667518471	76.488245174495	633.304655072917	1287.976048985546	51.761579643339	618.429646652220	868.433887542827	39.326864366223	375.789020279320	938.161536905855	35.078007754436	291.328809647760	1023.205893242664	96.186347445960	313.503999909234	1150.348015377326	42.127924517539	279.666932818997	1061.724396310463	1084.737012836801	65.983734323619	1222.979861924634	876.339170269851	58.944413095463	927.282396182492	1143.043270753532	682.985987325978	949.102605781569	884.760223225745	718.826631460174	
110	16.818142857143	842.033280074305	1014.785060713487	407.467058344678	1059.430727828604	1426.151704307017	205.756495749909	1144.392040029539	1365.959010128183	379.243388047946	1049.214209750218	1455.524622510495	539.538922845014	1040.109578532533	1498.135464730453	355.750536313276	1066.607941225230	956.254596125151	535.206923504471	1061.763981629519	962.048686590518	260.937241003806	1145.189114480339	785.036579311907	511.953553058718	1110.257691546420	667.051474210762	595.280067995024	1195.493951434936	624.223700702165	514.699685178757	1226.473892034023	532.766435769718	540.811686060968	1091.875836595566	747.256461664307	288.085322033667	991.059447818719	637.502521344772	230.750905843568	1072.308134125178	554.648416758739	289.359997296970	1066.841296010530	486.459499892221	299.427437171874	1037.655190871096	416.211232909103	294.560801452751	939.569490111773	304.723110243880	251.104660967722	992.260861369802	192.920171250857	321.936365145365	1191.933426719360	445.746824504517	555.577694277341	1115.329377880014	352.868917787801	626.909288270577	1160.176043761222	250.124711051803	580.633064988769	1025.301390535530	94.420472382777	565.734778661779	1201.879108328827	123.091054724314	596.436402757349	1109.074980421901	71.379224240654	636.221338328415	1314.126099168534	57.119307918272	619.967852028820	863.111772252371	39.271552825938	375.784443390530	932.803093132608	35.051593769509	291.345634934316	1017.865373239179	96.191025754997	313.554691981141	1144.990110076894	42.125698967738	279.670523746824	1066.300625938786	1083.917791680482	66.488928851550	1228.691922725324	876.371694858613	60.327269946223	921.109980153830	1145.650200119105	682.665397940310	938.731642721314	887.236398924527	720.119612094618	
